<mxfile host="app.diagrams.net" modified="2020-11-13T21:44:02.440Z" agent="5.0 (Macintosh; Intel Mac OS X 10_15_7) AppleWebKit/605.1.15 (KHTML, like Gecko) Version/13.1.3 Safari/605.1.15" etag="C5BKsUVWrwN_ZXhWuQ-5" version="13.9.8" type="github">
  <diagram id="NBsBnvd8ooWzO1W_3-nQ" name="Page-1">
    <mxGraphModel dx="875" dy="555" grid="0" gridSize="10" guides="1" tooltips="1" connect="1" arrows="1" fold="1" page="1" pageScale="1" pageWidth="1100" pageHeight="850" math="0" shadow="0">
      <root>
        <mxCell id="0" />
        <mxCell id="1" parent="0" />
        <mxCell id="ZPE_WtxlJSAoX5hBNASI-1" value="" style="rounded=0;whiteSpace=wrap;html=1;fillColor=none;" vertex="1" parent="1">
          <mxGeometry x="103" y="35" width="715" height="504" as="geometry" />
        </mxCell>
        <mxCell id="ZPE_WtxlJSAoX5hBNASI-2" value="Actor" style="shape=umlActor;verticalLabelPosition=bottom;verticalAlign=top;html=1;outlineConnect=0;fillColor=none;" vertex="1" parent="1">
          <mxGeometry x="47" y="243" width="30" height="60" as="geometry" />
        </mxCell>
        <mxCell id="ZPE_WtxlJSAoX5hBNASI-3" value="Maintain Course Records" style="ellipse;whiteSpace=wrap;html=1;fillColor=none;" vertex="1" parent="1">
          <mxGeometry x="217" y="157" width="117" height="54" as="geometry" />
        </mxCell>
        <mxCell id="ZPE_WtxlJSAoX5hBNASI-4" value="Maintain Class Records" style="ellipse;whiteSpace=wrap;html=1;fillColor=none;" vertex="1" parent="1">
          <mxGeometry x="217" y="240" width="117" height="54" as="geometry" />
        </mxCell>
        <mxCell id="ZPE_WtxlJSAoX5hBNASI-5" value="Face-to-face Classes" style="ellipse;whiteSpace=wrap;html=1;fillColor=none;" vertex="1" parent="1">
          <mxGeometry x="318" y="323" width="109" height="47" as="geometry" />
        </mxCell>
        <mxCell id="ZPE_WtxlJSAoX5hBNASI-6" value="Online Classes" style="ellipse;whiteSpace=wrap;html=1;fillColor=none;" vertex="1" parent="1">
          <mxGeometry x="148" y="323" width="97" height="47" as="geometry" />
        </mxCell>
        <mxCell id="ZPE_WtxlJSAoX5hBNASI-7" value="" style="endArrow=classic;html=1;exitX=0.5;exitY=0;exitDx=0;exitDy=0;dashed=1;" edge="1" parent="1" source="ZPE_WtxlJSAoX5hBNASI-6">
          <mxGeometry width="50" height="50" relative="1" as="geometry">
            <mxPoint x="184" y="336" as="sourcePoint" />
            <mxPoint x="234" y="286" as="targetPoint" />
          </mxGeometry>
        </mxCell>
        <mxCell id="ZPE_WtxlJSAoX5hBNASI-8" value="&amp;lt;&amp;lt;extend&amp;gt;&amp;gt;" style="text;html=1;align=center;verticalAlign=middle;resizable=0;points=[];autosize=1;" vertex="1" parent="1">
          <mxGeometry x="143" y="292" width="74" height="18" as="geometry" />
        </mxCell>
        <mxCell id="ZPE_WtxlJSAoX5hBNASI-10" value="" style="endArrow=classic;html=1;exitX=0.5;exitY=0;exitDx=0;exitDy=0;dashed=1;" edge="1" parent="1" source="ZPE_WtxlJSAoX5hBNASI-5" target="ZPE_WtxlJSAoX5hBNASI-4">
          <mxGeometry width="50" height="50" relative="1" as="geometry">
            <mxPoint x="206.5" y="333" as="sourcePoint" />
            <mxPoint x="244" y="296" as="targetPoint" />
          </mxGeometry>
        </mxCell>
        <mxCell id="ZPE_WtxlJSAoX5hBNASI-11" value="&amp;lt;&amp;lt;extend&amp;gt;&amp;gt;" style="text;html=1;align=center;verticalAlign=middle;resizable=0;points=[];autosize=1;" vertex="1" parent="1">
          <mxGeometry x="340" y="292" width="74" height="18" as="geometry" />
        </mxCell>
        <mxCell id="ZPE_WtxlJSAoX5hBNASI-12" value="Courses and Classes Records System" style="text;html=1;align=center;verticalAlign=middle;resizable=0;points=[];autosize=1;" vertex="1" parent="1">
          <mxGeometry x="115" y="45" width="215" height="18" as="geometry" />
        </mxCell>
        <mxCell id="ZPE_WtxlJSAoX5hBNASI-13" value="" style="endArrow=none;html=1;entryX=0;entryY=0.5;entryDx=0;entryDy=0;" edge="1" parent="1" target="ZPE_WtxlJSAoX5hBNASI-3">
          <mxGeometry width="50" height="50" relative="1" as="geometry">
            <mxPoint x="91" y="263" as="sourcePoint" />
            <mxPoint x="155" y="193" as="targetPoint" />
          </mxGeometry>
        </mxCell>
        <mxCell id="ZPE_WtxlJSAoX5hBNASI-14" value="" style="endArrow=none;html=1;exitX=0.5;exitY=0;exitDx=0;exitDy=0;" edge="1" parent="1" source="ZPE_WtxlJSAoX5hBNASI-4">
          <mxGeometry width="50" height="50" relative="1" as="geometry">
            <mxPoint x="226" y="261" as="sourcePoint" />
            <mxPoint x="276" y="211" as="targetPoint" />
          </mxGeometry>
        </mxCell>
        <mxCell id="ZPE_WtxlJSAoX5hBNASI-15" value="" style="endArrow=none;html=1;entryX=0;entryY=0.5;entryDx=0;entryDy=0;" edge="1" parent="1" target="ZPE_WtxlJSAoX5hBNASI-4">
          <mxGeometry width="50" height="50" relative="1" as="geometry">
            <mxPoint x="91" y="269" as="sourcePoint" />
            <mxPoint x="141" y="219" as="targetPoint" />
          </mxGeometry>
        </mxCell>
      </root>
    </mxGraphModel>
  </diagram>
</mxfile>
